{
    "accessors" : [
        {
            "bufferView" : 0, 
            "componentType" : 5123, 
            "count" : 34740, 
            "max" : [
                6187
            ], 
            "min" : [
                0
            ], 
            "type" : "SCALAR"
        }, 
        {
            "bufferView" : 1, 
            "componentType" : 5126, 
            "count" : 6188, 
            "max" : [
                0.0969068631529808, 
                0.10981430113315582, 
                0.1539866030216217
            ], 
            "min" : [
                -0.09645155817270279, 
                -0.12367379665374756, 
                -0.1267751008272171
            ], 
            "type" : "VEC3"
        }, 
        {
            "bufferView" : 2, 
            "componentType" : 5126, 
            "count" : 6188, 
            "max" : [
                0.99993896484375, 
                0.999969482421875, 
                0.999969482421875
            ], 
            "min" : [
                -0.9998779296875, 
                -0.999969482421875, 
                -0.999969482421875
            ], 
            "type" : "VEC3"
        }, 
        {
            "bufferView" : 3, 
            "componentType" : 5126, 
            "count" : 6188, 
            "max" : [
                0.9999975562095642, 
                0.999954104423523, 
                0.9997554421424866, 
                1.0
            ], 
            "min" : [
                -0.9952418208122253, 
                -0.9999498128890991, 
                -0.9997973442077637, 
                1.0
            ], 
            "type" : "VEC4"
        }, 
        {
            "bufferView" : 4, 
            "componentType" : 5126, 
            "count" : 6188, 
            "max" : [
                0.9884080290794373, 
                0.9929320220835507
            ], 
            "min" : [
                0.006062000058591366, 
                0.004270970821380615
            ], 
            "type" : "VEC2"
        }
    ], 
    "asset" : {
        "generator" : "Khronos Blender glTF 2.0 exporter", 
        "version" : "2.0"
    }, 
    "bufferViews" : [
        {
            "buffer" : 0, 
            "byteLength" : 69480, 
            "byteOffset" : 0, 
            "target" : 34963
        }, 
        {
            "buffer" : 0, 
            "byteLength" : 74256, 
            "byteOffset" : 69480, 
            "target" : 34962
        }, 
        {
            "buffer" : 0, 
            "byteLength" : 74256, 
            "byteOffset" : 143736, 
            "target" : 34962
        }, 
        {
            "buffer" : 0, 
            "byteLength" : 99008, 
            "byteOffset" : 217992, 
            "target" : 34962
        }, 
        {
            "buffer" : 0, 
            "byteLength" : 49504, 
            "byteOffset" : 317000, 
            "target" : 34962
        }
    ], 
    "buffers" : [
        {
            "byteLength" : 366504, 
            "uri" : "avatar.bin"
        }
    ], 
    "images" : [
        {
            "uri" : "export1.png"
        }
    ], 
    "materials" : [
        {
            "name" : "Texture1", 
            "pbrMetallicRoughness" : {
                "baseColorFactor" : [
                    0.699999988079071, 
                    0.699999988079071, 
                    0.699999988079071, 
                    1.0
                ], 
                "baseColorTexture" : {
                    "index" : 0
                }, 
                "metallicFactor" : 0.0
            }
        }
    ], 
    "meshes" : [
        {
            "name" : "Surf0", 
            "primitives" : [
                {
                    "attributes" : {
                        "NORMAL" : 2, 
                        "POSITION" : 1, 
                        "TANGENT" : 3, 
                        "TEXCOORD_0" : 4
                    }, 
                    "indices" : 0, 
                    "material" : 0
                }
            ]
        }
    ], 
    "nodes" : [
        {
            "mesh" : 0, 
            "name" : "Surf0", 
            "rotation" : [
                0.7071068286895752, 
                0.0, 
                -0.0, 
                0.7071068286895752
            ]
        }
    ], 
    "samplers" : [
        {}
    ], 
    "scene" : 0, 
    "scenes" : [
        {
            "name" : "Scene", 
            "nodes" : [
                0
            ]
        }
    ], 
    "textures" : [
        {
            "sampler" : 0, 
            "source" : 0
        }
    ]
}
